<svg id="Group_17" data-name="Group 17" xmlns="http://www.w3.org/2000/svg" xmlns:xlink="http://www.w3.org/1999/xlink" width="748.285" height="138.154" viewBox="0 0 748.285 138.154">
  <defs>
    <clipPath id="clip-path">
      <rect id="Rectangle_9" data-name="Rectangle 9" width="748.285" height="138.154" fill="none"/>
    </clipPath>
  </defs>
  <g id="Group_16" data-name="Group 16" clip-path="url(#clip-path)">
    <path id="Path_3" data-name="Path 3" d="M4.6,120.414c3.355,0,4.953,1.862,4.953,4.194a4.024,4.024,0,0,1-3.4,4.093l3.581,5.975H7.508l-3.4-5.832H1.861v5.832H0V120.414Zm0,1.534H1.861v5.4H4.6c2.107,0,3.028-1.145,3.028-2.742,0-1.616-.9-2.66-3.028-2.66" fill="#fff"/>
    <path id="Path_4" data-name="Path 4" d="M28.087,121.927H22.275V126.7h5.2v1.534h-5.2v4.911h5.812v1.534H20.413V120.393h7.674Z" fill="#fff"/>
    <path id="Path_5" data-name="Path 5" d="M45.309,120.229a6.713,6.713,0,0,1,6.609,4.317h-2.23a4.486,4.486,0,0,0-4.379-2.679c-2.987,0-5.218,2.169-5.218,5.668,0,3.478,2.231,5.647,5.218,5.647a4.5,4.5,0,0,0,4.379-2.66h2.23a6.706,6.706,0,0,1-6.609,4.276,7.286,7.286,0,0,1,0-14.569" fill="#fff"/>
    <rect id="Rectangle_7" data-name="Rectangle 7" width="1.862" height="14.262" transform="translate(62.652 120.414)" fill="#fff"/>
    <path id="Path_6" data-name="Path 6" d="M75.661,120.414h8.063v1.514h-6.2v4.808h5.034v1.515H77.523v6.425H75.661Z" fill="#fff"/>
    <path id="Path_7" data-name="Path 7" d="M101.621,121.927H95.809V126.7h5.2v1.534h-5.2v4.911h5.812v1.534H93.948V120.393h7.673Z" fill="#fff"/>
    <path id="Path_8" data-name="Path 8" d="M117.514,115.4h1.862l-5.606,22.754h-1.842Z" fill="#fff"/>
    <path id="Path_9" data-name="Path 9" d="M134.736,128.721h-2.742v5.954h-1.862V120.414h4.6c3.355,0,4.932,1.841,4.932,4.173,0,2.169-1.392,4.134-4.932,4.134m0-1.535c2.128,0,3.028-1,3.028-2.6,0-1.657-.9-2.639-3.028-2.639h-2.742v5.238Z" fill="#fff"/>
    <path id="Path_10" data-name="Path 10" d="M157.627,121.927h-5.812V126.7h5.2v1.534h-5.2v4.911h5.812v1.534h-7.674V120.393h7.674Z" fill="#fff"/>
    <rect id="Rectangle_8" data-name="Rectangle 8" width="8.164" height="1.576" transform="translate(181.475 126.388)" fill="#fff"/>
    <path id="Path_11" data-name="Path 11" d="M214.018,133.182c3.888-3.131,7.571-6.077,7.571-9.105,0-1.638-.717-2.866-2.721-2.866-1.924,0-2.907,1.33-2.988,3.193h-1.8c.122-3.152,2.107-4.788,4.767-4.788,2.782,0,4.583,1.636,4.583,4.378,0,3.683-3.97,6.814-6.609,8.962h7.039v1.556h-9.842Z" fill="#fff"/>
    <path id="Path_12" data-name="Path 12" d="M239.139,119.657c4.071,0,5.136,3.232,5.136,7.469,0,4.3-1.065,7.549-5.136,7.549-4.093,0-5.157-3.253-5.157-7.549,0-4.237,1.064-7.469,5.157-7.469m0,1.7c-2.927,0-3.315,2.7-3.315,5.771,0,3.191.388,5.851,3.315,5.851,2.9,0,3.294-2.66,3.294-5.851,0-3.07-.389-5.771-3.294-5.771" fill="#fff"/>
    <path id="Path_13" data-name="Path 13" d="M254.579,133.182c3.888-3.131,7.571-6.077,7.571-9.105,0-1.638-.716-2.866-2.721-2.866-1.923,0-2.906,1.33-2.988,3.193h-1.8c.123-3.152,2.107-4.788,4.767-4.788,2.783,0,4.584,1.636,4.584,4.378,0,3.683-3.97,6.814-6.609,8.962h7.039v1.556h-9.843Z" fill="#fff"/>
    <path id="Path_14" data-name="Path 14" d="M273.091,133.182c3.888-3.131,7.571-6.077,7.571-9.105,0-1.638-.716-2.866-2.721-2.866-1.923,0-2.906,1.33-2.988,3.193h-1.8c.123-3.152,2.107-4.788,4.767-4.788,2.783,0,4.584,1.636,4.584,4.378,0,3.683-3.97,6.814-6.609,8.962h7.039v1.556h-9.843Z" fill="#fff"/>
    <path id="Path_15" data-name="Path 15" d="M439.061,121.58H437.1v-1.7h3.847v14.794h-1.883Z" fill="#fff"/>
    <path id="Path_16" data-name="Path 16" d="M456.471,123.4a2.552,2.552,0,0,0-2.8-2.271c-2.354,0-3.622,1.617-3.6,6.015a4.23,4.23,0,0,1,4.011-2.27c2.763,0,4.624,1.821,4.624,4.931,0,2.7-1.6,4.911-4.829,4.911-4.379,0-5.422-3.152-5.422-7.632,0-4.646,1.493-7.51,5.238-7.51a4.179,4.179,0,0,1,4.5,3.826Zm-6.179,6.262a3.238,3.238,0,0,0,3.479,3.5,3,3,0,0,0,3.129-3.295c0-2.087-1.084-3.417-3.212-3.417a3.144,3.144,0,0,0-3.4,3.213" fill="#fff"/>
    <path id="Path_17" data-name="Path 17" d="M483.594,131.505h-6.22l-1.146,3.171h-1.965l5.157-14.18h2.148l5.137,14.18H484.74Zm-3.11-8.718-2.578,7.2h5.156Z" fill="#fff"/>
    <path id="Path_18" data-name="Path 18" d="M503.761,121.58H501.8v-1.7h3.848v14.794h-1.883Z" fill="#fff"/>
    <path id="Path_19" data-name="Path 19" d="M513.251,123.585c0-2.169,1.637-3.928,4.85-3.928s4.87,1.78,4.87,3.928a3.555,3.555,0,0,1-2.374,3.4,3.727,3.727,0,0,1,2.762,3.7c0,2.681-2.127,4.4-5.258,4.4-3.111,0-5.218-1.718-5.218-4.4a3.7,3.7,0,0,1,2.742-3.7,3.44,3.44,0,0,1-2.374-3.4m1.412,7.039c0,1.74,1.33,2.906,3.438,2.906s3.417-1.187,3.417-2.906c0-1.9-1.473-2.824-3.417-2.824-1.9,0-3.438.86-3.438,2.824m6.507-6.814c0-1.7-1.207-2.6-3.069-2.6-1.822,0-3.049.88-3.049,2.62,0,1.535,1.248,2.537,3.049,2.537,1.821,0,3.069-1.023,3.069-2.558" fill="#fff"/>
    <path id="Path_20" data-name="Path 20" d="M545.08,120.414h1.883v10.538a3.674,3.674,0,0,1-3.949,3.867,3.728,3.728,0,0,1-3.97-4.01h1.862c.021,1.309.635,2.353,2.108,2.353a1.97,1.97,0,0,0,2.066-2.21Z" fill="#fff"/>
    <path id="Path_21" data-name="Path 21" d="M554.672,120.414h1.862v9.023c0,2.62,1.412,3.746,3.52,3.746s3.5-1.126,3.5-3.746v-9.023h1.862v9c0,3.7-2.435,5.4-5.382,5.4s-5.361-1.7-5.361-5.4Z" fill="#fff"/>
    <path id="Path_22" data-name="Path 22" d="M583.824,120.393v14.282h-1.862l-7.49-11.356v11.356h-1.861V120.393h1.861l7.49,11.336V120.393Z" fill="#fff"/>
    <path id="Path_23" data-name="Path 23" d="M600.208,128.21h-7.265v6.466h-1.861V120.414h1.861v6.262h7.265v-6.262h1.861v14.262h-1.861Z" fill="#fff"/>
    <path id="Path_24" data-name="Path 24" d="M615.773,134.819a7.286,7.286,0,1,1,7.162-7.284,7.035,7.035,0,0,1-7.162,7.284m0-1.616c3.008,0,5.258-2.189,5.258-5.668,0-3.5-2.25-5.668-5.258-5.668s-5.26,2.169-5.26,5.668c0,3.479,2.251,5.668,5.26,5.668" fill="#fff"/>
    <path id="Path_25" data-name="Path 25" d="M355.023,82.945c6.217,6.924,13.792,10.939,23.232,9.266,12.529-2.22,21.247-10.407,29.892-20.327-8.781,1.389-15.549-1.656-22.374-5.092-8.254-4.155-17.345-1.086-22.116,7.054,7.081,3.536,14.621,3.356,22.2,3.011-9.726,3.21-19.268,3.207-29.146-1.447,5.879-4.576,10.562-9.339,12.629-16.027,1.654-5.35,1.928-10.484-1.707-15.473a41.859,41.859,0,0,1-4.945-9.96,29.831,29.831,0,0,1-1.826-16.381c.09,9.92,3.719,18.39,10.127,25.948.68-.574,1.2-.945,1.639-1.393C379.622,35,379.579,24.7,372.208,16.2c-4.76-5.493-9.9-10.652-15.1-16.2-2.35,6.654-5.2,13.239-6.986,20.1-3.373,12.952,1.44,25.415,15.217,27.761,1.833.312,2.3,1.437,2.352,3.148.311,9.654-4.977,16.068-12.508,20.832-5.083,3.215-10.641,5.679-16.116,8.547-9.272-9.788-9.382-21.431-7-33.6-.035,9.677.158,19.3,6.346,27.786,1.606-.7,3.084-1.245,4.475-1.961,7.214-3.715,10.019-10.163,7.466-17.9a31.62,31.62,0,0,0-3.959-7.574c-4.359-6.467-8.915-12.8-13.016-18.647-1.229,2.467-2.8,5.553-4.311,8.672-2.949,6.1-6.662,11.978-8.61,18.388-3.362,11.06.906,19.4,11.451,22.7a4.378,4.378,0,0,1,1.424.67c1.822,1.456,2.941,2.831.857,5.2a30.843,30.843,0,0,0-4.677,7.2c-4.054,8.66-2.666,16.621,1.305,24.753a30.276,30.276,0,0,0,5.083,7.031c1.918,1.918,13.427,12.761,29.4,11.506,8.082-.635,17.423-4.426,21.734-10.866a9.421,9.421,0,0,0,1.917-5.753c-.191-4.261-3.985-7.162-6.392-8.949-8.163-6.062-17.61-5.816-19.176-5.753-11.673.464-19.463,7.4-21.734,9.588l-1.128.806c3.831,4.351,7.132,5.42,9.438,5.586,4.412.318,6.5-2.546,10.867-1.278,2.833.823,2.989,2.331,6.392,3.2,4,1.016,6.98-.258,7.031,0,.072.353-5.431,3.171-10.227,1.278-1.748-.69-1.928-1.423-3.835-1.918-2.417-.626-3.848.106-7.032.64-2.8.468-6.356,1.064-9.588,0-1.471-.485-5.131-3.557-6.489-5.114-5.017-5.753-6.877-15.782-3.752-22.5,2.579-5.545,7.1-9.221,12.251-12.194,4.1-2.367,6.264-1.955,9.434,1.575" fill="#fff"/>
    <path id="Path_26" data-name="Path 26" d="M129.413,17.7a8.625,8.625,0,0,1,8.6,5.924h-4.221a4.615,4.615,0,0,0-4.4-2.621c-3.2,0-5.479,2.333-5.479,6.055,0,3.7,2.28,6.056,5.479,6.056a4.6,4.6,0,0,0,4.4-2.647h4.221a8.593,8.593,0,0,1-8.6,5.923,9.021,9.021,0,0,1-9.28-9.332,9.043,9.043,0,0,1,9.28-9.358" fill="#fff"/>
    <path id="Path_27" data-name="Path 27" d="M149.645,36.419a9.2,9.2,0,0,1-9.385-9.384,9.372,9.372,0,0,1,18.743,0,9.159,9.159,0,0,1-9.358,9.384m0-3.276c3.3,0,5.584-2.386,5.584-6.108s-2.281-6.056-5.584-6.056c-3.329,0-5.61,2.333-5.61,6.056s2.281,6.108,5.61,6.108" fill="#fff"/>
    <path id="Path_28" data-name="Path 28" d="M177.375,17.912V36.236H173.7l-8.31-12.556V36.236h-3.67V17.912h3.67l8.31,12.583V17.912Z" fill="#fff"/>
    <path id="Path_29" data-name="Path 29" d="M197.948,23.443h-4.221a4.6,4.6,0,0,0-4.3-2.358c-3.277,0-5.557,2.333-5.557,5.976,0,3.723,2.306,6.029,5.715,6.029a4.967,4.967,0,0,0,5.19-4.22h-6.292V26.065h9.909v3.2a8.94,8.94,0,0,1-8.938,7.13,9.056,9.056,0,0,1-9.36-9.332,9.072,9.072,0,0,1,9.333-9.358c4.089,0,7.34,2.07,8.52,5.74" fill="#fff"/>
    <path id="Path_30" data-name="Path 30" d="M207.984,17.938c4.4,0,6.605,2.543,6.605,5.61a5.282,5.282,0,0,1-4.168,5.269l4.378,7.419h-4.247l-4.037-7.13h-1.729v7.13h-3.671v-18.3Zm-.132,3.041h-3.066v5.374h3.066c2.045,0,2.963-1.074,2.963-2.727,0-1.625-.918-2.647-2.963-2.647" fill="#fff"/>
    <path id="Path_31" data-name="Path 31" d="M228.53,20.9h-6.946v4.587h6.16V28.4h-6.16v4.85h6.946v2.988H217.913V17.912H228.53Z" fill="#fff"/>
    <path id="Path_32" data-name="Path 32" d="M238.174,36.42c-3.8,0-6.737-1.992-6.79-5.452h3.933A2.51,2.51,0,0,0,238.1,33.4c1.73,0,2.753-.917,2.753-2.228,0-3.958-9.438-1.572-9.411-8.2,0-3.3,2.674-5.3,6.449-5.3,3.748,0,6.317,1.913,6.553,5.217H240.4a2.417,2.417,0,0,0-2.623-2.176c-1.441-.053-2.516.655-2.516,2.149,0,3.67,9.385,1.625,9.385,8.074,0,2.884-2.307,5.479-6.475,5.479" fill="#fff"/>
    <path id="Path_33" data-name="Path 33" d="M254.134,36.42c-3.8,0-6.737-1.992-6.789-5.452h3.932a2.512,2.512,0,0,0,2.779,2.437c1.729,0,2.752-.917,2.752-2.228,0-3.958-9.437-1.572-9.411-8.2,0-3.3,2.675-5.3,6.449-5.3,3.749,0,6.317,1.913,6.554,5.217h-4.037a2.416,2.416,0,0,0-2.622-2.176c-1.442-.053-2.516.655-2.516,2.149,0,3.67,9.385,1.625,9.385,8.074,0,2.884-2.308,5.479-6.476,5.479" fill="#fff"/>
    <path id="Path_34" data-name="Path 34" d="M272.271,36.419a9.2,9.2,0,0,1-9.386-9.384,9.371,9.371,0,0,1,18.743,0,9.159,9.159,0,0,1-9.357,9.384m0-3.276c3.3,0,5.583-2.386,5.583-6.108s-2.281-6.056-5.583-6.056c-3.33,0-5.611,2.333-5.611,6.056s2.281,6.108,5.611,6.108" fill="#fff"/>
    <path id="Path_35" data-name="Path 35" d="M12.767,50.746H24.554L36.049,79.1,47.427,50.746H59.156V91.707H49.177V67.142l-9.16,24.565H31.964L22.746,67.084V91.707H12.767Z" fill="#fff"/>
    <path id="Path_36" data-name="Path 36" d="M65.4,50.4c0-3.034,2.393-5.427,5.952-5.427,3.5,0,5.893,2.393,5.893,5.427,0,2.976-2.392,5.368-5.893,5.368-3.559,0-5.952-2.392-5.952-5.368m.934,8.753h9.978V91.707H66.334Z" fill="#fff"/>
    <path id="Path_37" data-name="Path 37" d="M96.443,58.8a11.862,11.862,0,0,1,9.511,4.085V59.148h9.978v48.08h-9.978V87.622a12.091,12.091,0,0,1-9.628,4.493c-7.994,0-14.762-6.71-14.762-16.629S88.332,58.8,96.443,58.8m2.392,8.636c-3.325,0-7.118,2.567-7.118,8.053s3.793,7.993,7.118,7.993c3.385,0,7.119-2.567,7.119-8.052s-3.734-7.994-7.119-7.994" fill="#fff"/>
    <path id="Path_38" data-name="Path 38" d="M155.318,91.707H145.34V87.272a11.864,11.864,0,0,1-9.861,4.786c-7.527,0-12.6-5.194-12.6-13.888V59.148h9.92v17.68c0,4.435,2.508,6.885,6.243,6.885,3.85,0,6.3-2.45,6.3-6.885V59.148h9.978Z" fill="#fff"/>
    <path id="Path_39" data-name="Path 39" d="M176.967,92.173c-9.57,0-16.455-6.418-16.455-16.746s6.769-16.746,16.455-16.746c9.511,0,16.221,6.3,16.221,16.221a25.15,25.15,0,0,1-.175,2.918H170.431c.351,4.259,2.977,6.243,6.186,6.243a5.3,5.3,0,0,0,5.193-3.151h10.619c-1.575,6.36-7.351,11.261-15.462,11.261m-6.477-19.9h12.487c0-3.559-2.8-5.6-6.127-5.6a6.173,6.173,0,0,0-6.36,5.6" fill="#fff"/>
    <path id="Path_40" data-name="Path 40" d="M197.508,50.4c0-3.034,2.392-5.427,5.951-5.427,3.5,0,5.894,2.393,5.894,5.427,0,2.976-2.393,5.368-5.894,5.368-3.559,0-5.951-2.392-5.951-5.368m.933,8.753h9.978V91.707h-9.978Z" fill="#fff"/>
    <path id="Path_41" data-name="Path 41" d="M228.024,58.682c4.844,0,8.286,2.216,10.036,5.076v-4.61h9.979V91.707H238.06V87.1c-1.808,2.859-5.251,5.076-10.094,5.076-7.935,0-14.295-6.535-14.295-16.805s6.36-16.687,14.353-16.687m2.918,8.693c-3.734,0-7.119,2.8-7.119,7.994s3.385,8.11,7.119,8.11c3.793,0,7.118-2.858,7.118-8.051s-3.325-8.053-7.118-8.053" fill="#fff"/>
    <path id="Path_42" data-name="Path 42" d="M268.521,92.174c-8.694,0-14.529-4.843-15-11.145h9.86c.235,2.276,2.276,3.793,5.019,3.793,2.566,0,3.909-1.167,3.909-2.626,0-5.251-17.739-1.459-17.739-13.42,0-5.543,4.727-10.094,13.246-10.094,8.4,0,13.071,4.668,13.713,11.086h-9.22c-.292-2.217-1.984-3.676-4.784-3.676-2.335,0-3.619.934-3.619,2.509,0,5.193,17.623,1.517,17.8,13.654,0,5.659-5.018,9.919-13.186,9.919" fill="#fff"/>
    <path id="Path_43" data-name="Path 43" d="M441.49,37.143c-3.8,0-6.737-1.992-6.79-5.452h3.933a2.51,2.51,0,0,0,2.778,2.437c1.73,0,2.753-.917,2.753-2.228,0-3.958-9.438-1.572-9.411-8.2,0-3.3,2.674-5.3,6.448-5.3,3.749,0,6.318,1.913,6.554,5.217h-4.037a2.415,2.415,0,0,0-2.622-2.176c-1.441-.053-2.516.655-2.516,2.149,0,3.67,9.385,1.625,9.385,8.074,0,2.884-2.307,5.479-6.475,5.479" fill="#fff"/>
    <path id="Path_44" data-name="Path 44" d="M457.475,37.2c-4.22,0-7.287-2.936-7.287-7.5,0-4.588,2.988-7.5,7.287-7.5a6.819,6.819,0,0,1,7.157,7.183,8.539,8.539,0,0,1-.1,1.416H453.911a3.4,3.4,0,0,0,3.486,3.355,2.994,2.994,0,0,0,2.91-1.757h3.958a6.75,6.75,0,0,1-6.79,4.8m-3.539-8.86h6.895a3.227,3.227,0,0,0-3.46-3.12,3.374,3.374,0,0,0-3.435,3.12" fill="#fff"/>
    <path id="Path_45" data-name="Path 45" d="M487.619,28.938c0-2.307-1.284-3.513-3.225-3.513-1.965,0-3.25,1.206-3.25,3.513v8.021h-3.67V28.938c0-2.307-1.285-3.513-3.224-3.513-1.992,0-3.277,1.206-3.277,3.513v8.021H467.3V22.437h3.67v1.756a5.29,5.29,0,0,1,4.273-1.966A5.559,5.559,0,0,1,480.357,25a5.753,5.753,0,0,1,4.982-2.778c3.486,0,5.95,2.2,5.95,6.213v8.519h-3.67Z" fill="#fff"/>
    <path id="Path_46" data-name="Path 46" d="M501.111,37.2c-4.22,0-7.287-2.936-7.287-7.5,0-4.588,2.988-7.5,7.287-7.5a6.819,6.819,0,0,1,7.157,7.183,8.536,8.536,0,0,1-.105,1.416H497.547a3.4,3.4,0,0,0,3.486,3.355,2.993,2.993,0,0,0,2.91-1.757H507.9a6.75,6.75,0,0,1-6.79,4.8m-3.538-8.86h6.894a3.227,3.227,0,0,0-3.46-3.12,3.373,3.373,0,0,0-3.434,3.12" fill="#fff"/>
    <path id="Path_47" data-name="Path 47" d="M516.626,22.2a5.749,5.749,0,0,1,4.8,2.307v-2.07h3.7V36.96h-3.7V34.837A5.732,5.732,0,0,1,516.6,37.2c-3.67,0-6.605-3.015-6.605-7.55s2.935-7.446,6.632-7.446m.944,3.225a3.873,3.873,0,0,0-3.827,4.221c0,2.752,1.86,4.325,3.827,4.325,2.019,0,3.854-1.521,3.854-4.273s-1.835-4.273-3.854-4.273" fill="#fff"/>
    <path id="Path_48" data-name="Path 48" d="M538.879,28.938c0-2.333-1.285-3.592-3.225-3.592-1.992,0-3.277,1.259-3.277,3.592v8.021h-3.67V22.437h3.67v1.809a5.423,5.423,0,0,1,4.378-2.019c3.382,0,5.794,2.2,5.794,6.213v8.519h-3.67Z" fill="#fff"/>
    <path id="Path_49" data-name="Path 49" d="M551.745,22.2a5.96,5.96,0,0,1,4.745,2.255V17.562h3.723v19.4H556.49V34.811a5.488,5.488,0,0,1-4.771,2.386c-3.7,0-6.632-3.015-6.632-7.55s2.935-7.446,6.658-7.446m.918,3.225a3.874,3.874,0,0,0-3.828,4.221c0,2.752,1.861,4.325,3.828,4.325,2.019,0,3.854-1.521,3.854-4.273s-1.835-4.273-3.854-4.273" fill="#fff"/>
    <path id="Path_50" data-name="Path 50" d="M570.248,37.2a7.108,7.108,0,0,1-7.366-7.5,7.471,7.471,0,1,1,14.942,0,7.26,7.26,0,0,1-7.576,7.5m0-3.2c1.939,0,3.8-1.416,3.8-4.3,0-2.91-1.809-4.3-3.749-4.3s-3.7,1.39-3.7,4.3c0,2.883,1.678,4.3,3.644,4.3" fill="#fff"/>
    <path id="Path_51" data-name="Path 51" d="M592.445,22.2a5.748,5.748,0,0,1,4.8,2.307v-2.07h3.7V36.96h-3.7V34.837a5.731,5.731,0,0,1-4.825,2.36c-3.67,0-6.605-3.015-6.605-7.55s2.935-7.446,6.632-7.446m.944,3.225a3.873,3.873,0,0,0-3.827,4.221c0,2.752,1.86,4.325,3.827,4.325,2.019,0,3.854-1.521,3.854-4.273s-1.835-4.273-3.854-4.273" fill="#fff"/>
    <path id="Path_52" data-name="Path 52" d="M462.073,59.463H446.961v8.286h13.362v7.7H446.961v8.986h15.112v7.994h-25.09V51.47h25.09Z" fill="#fff"/>
    <path id="Path_53" data-name="Path 53" d="M481.8,92.9c-8.694,0-14.529-4.843-15-11.145h9.861c.234,2.276,2.276,3.793,5.018,3.793,2.567,0,3.91-1.167,3.91-2.626,0-5.251-17.738-1.459-17.738-13.42,0-5.543,4.725-10.094,13.245-10.094,8.4,0,13.07,4.668,13.712,11.086h-9.219c-.292-2.217-1.984-3.676-4.785-3.676-2.334,0-3.617.934-3.617,2.509,0,5.193,17.621,1.517,17.8,13.654,0,5.659-5.018,9.919-13.187,9.919" fill="#fff"/>
    <path id="Path_54" data-name="Path 54" d="M521.125,59.4c7.993,0,14.353,6.418,14.353,16.687S529.118,92.9,521.125,92.9a11.712,11.712,0,0,1-10.037-5.018v20.073H501.11V59.871h9.978v4.61A11.476,11.476,0,0,1,521.125,59.4M518.149,68.1c-3.734,0-7.119,2.859-7.119,8.053s3.385,8.051,7.119,8.051c3.792,0,7.177-2.916,7.177-8.11s-3.385-7.994-7.177-7.994" fill="#fff"/>
    <path id="Path_55" data-name="Path 55" d="M555.2,92.9c-9.571,0-16.456-6.418-16.456-16.746S545.516,59.4,555.2,59.4c9.51,0,16.22,6.3,16.22,16.221a25.15,25.15,0,0,1-.175,2.918H548.667c.35,4.259,2.976,6.243,6.185,6.243a5.3,5.3,0,0,0,5.193-3.151h10.619C569.089,88,563.313,92.9,555.2,92.9M548.725,73h12.487c0-3.559-2.8-5.6-6.127-5.6a6.173,6.173,0,0,0-6.36,5.6" fill="#fff"/>
    <path id="Path_56" data-name="Path 56" d="M586.653,92.43h-9.979V59.871h9.979V65.3a12.137,12.137,0,0,1,10.211-5.776V70.082h-2.742c-4.727,0-7.469,1.634-7.469,7.236Z" fill="#fff"/>
    <path id="Path_57" data-name="Path 57" d="M614.02,59.4c4.843,0,8.285,2.216,10.035,5.076v-4.61h9.979V92.43h-9.979V87.821C622.247,90.68,618.8,92.9,613.961,92.9c-7.935,0-14.295-6.535-14.295-16.805S606.026,59.4,614.02,59.4m2.918,8.693c-3.735,0-7.119,2.8-7.119,7.994s3.384,8.11,7.119,8.11c3.792,0,7.117-2.858,7.117-8.051S620.73,68.1,616.938,68.1" fill="#fff"/>
    <path id="Path_58" data-name="Path 58" d="M663.733,74.751c0-4.435-2.45-6.886-6.243-6.886s-6.243,2.451-6.243,6.886v17.68h-9.979V59.872h9.979v4.317a11.937,11.937,0,0,1,9.861-4.667c7.526,0,12.545,5.134,12.545,13.887V92.431h-9.92Z" fill="#fff"/>
    <path id="Path_59" data-name="Path 59" d="M694.952,59.4c8.169,0,13.945,4.492,15.638,12.253H699.97a5.144,5.144,0,0,0-5.193-3.734c-3.559,0-6.011,2.8-6.011,8.227s2.452,8.228,6.011,8.228a5.066,5.066,0,0,0,5.193-3.735h10.62a14.863,14.863,0,0,1-12.72,12.02v2.159c3.5,0,7.585,1.809,7.585,6.651,0,4.785-4.085,6.769-8.11,6.769h-8.987v-5.484H696c1.458,0,2.334-.351,2.334-1.518,0-1.108-.876-1.458-2.334-1.458h-4.144V92.664c-7.877-1.226-13.245-7.352-13.245-16.513,0-10.269,6.769-16.746,16.338-16.746" fill="#fff"/>
    <path id="Path_60" data-name="Path 60" d="M728.27,59.4c4.844,0,8.286,2.216,10.037,5.076v-4.61h9.978V92.43h-9.978V87.821c-1.809,2.859-5.252,5.076-10.1,5.076-7.935,0-14.295-6.535-14.295-16.805S720.277,59.4,728.27,59.4m2.918,8.693c-3.734,0-7.119,2.8-7.119,7.994s3.385,8.11,7.119,8.11c3.793,0,7.119-2.858,7.119-8.051s-3.326-8.053-7.119-8.053" fill="#fff"/>
  </g>
</svg>
