<svg xmlns="http://www.w3.org/2000/svg" xmlns:xlink="http://www.w3.org/1999/xlink" width="753.479" height="192.503" viewBox="0 0 753.479 192.503">
  <defs>
    <clipPath id="clip-path">
      <rect id="Rectangle_5" data-name="Rectangle 5" width="753.479" height="146.376" fill="none"/>
    </clipPath>
  </defs>
  <g id="Group_24" data-name="Group 24" transform="translate(-546 -313)">
    <g id="Group_23" data-name="Group 23" transform="translate(546 313)">
      <g id="Group_10" data-name="Group 10">
        <g id="Group_9" data-name="Group 9" clip-path="url(#clip-path)">
          <text id="RECIFE_PE_-_20" data-name="RECIFE/PE - 20" transform="translate(0 134.676)" fill="#fff" font-size="20.455" font-family="Poppins-Medium, Poppins" font-weight="500"><tspan x="0" y="0" letter-spacing="0.39em">RECI</tspan><tspan y="0" letter-spacing="0.389em">F</tspan><tspan y="0" letter-spacing="0.39em">E/</tspan><tspan y="0" letter-spacing="0.389em">P</tspan><tspan y="0" letter-spacing="0.39em">E - 2</tspan><tspan y="0">0</tspan></text>
          <text id="_2" data-name="2" transform="translate(255.115 134.676)" fill="#fff" font-size="20.455" font-family="Poppins-Medium, Poppins" font-weight="500"><tspan x="0" y="0">2</tspan></text>
          <text id="_2-2" data-name="2" transform="translate(273.626 134.676)" fill="#fff" font-size="20.455" font-family="Poppins-Medium, Poppins" font-weight="500"><tspan x="0" y="0">2</tspan></text>
          <text id="_16_À_18_JUNHO" data-name="16 À 18 JUNHO" transform="translate(437.9 134.676)" fill="#fff" font-size="20.455" font-family="Poppins-Medium, Poppins" font-weight="500"><tspan x="0" y="0" letter-spacing="0.2em">1</tspan><tspan y="0" letter-spacing="0.199em">6</tspan><tspan y="0" xml:space="preserve" letter-spacing="0.2em"> À</tspan><tspan y="0" letter-spacing="0.199em"> </tspan><tspan y="0" letter-spacing="0.2em">18</tspan><tspan y="0" letter-spacing="0.199em"> </tspan><tspan y="0" letter-spacing="0.2em">JUNH</tspan><tspan y="0">O</tspan></text>
          <path id="Path_2" data-name="Path 2" d="M356.6,82.945c6.217,6.924,13.792,10.939,23.232,9.266,12.529-2.22,21.247-10.407,29.892-20.327-8.781,1.389-15.549-1.656-22.374-5.092C379.1,62.637,370,65.706,365.233,73.846c7.081,3.536,14.621,3.356,22.2,3.011-9.726,3.21-19.268,3.207-29.146-1.447,5.879-4.576,10.562-9.339,12.629-16.027,1.654-5.35,1.928-10.484-1.707-15.473a41.859,41.859,0,0,1-4.945-9.96,29.822,29.822,0,0,1-1.826-16.381c.09,9.92,3.719,18.39,10.127,25.948.68-.574,1.2-.945,1.639-1.393C381.2,35,381.155,24.7,373.784,16.2c-4.76-5.493-9.9-10.652-15.1-16.2-2.35,6.654-5.2,13.239-6.986,20.1-3.373,12.952,1.44,25.415,15.217,27.761,1.833.312,2.3,1.437,2.352,3.148.311,9.654-4.977,16.068-12.508,20.832-5.083,3.215-10.641,5.679-16.116,8.547-9.272-9.788-9.382-21.431-7-33.6-.035,9.677.158,19.3,6.346,27.786,1.606-.7,3.084-1.245,4.475-1.961,7.214-3.715,10.019-10.163,7.466-17.9a31.621,31.621,0,0,0-3.959-7.574c-4.359-6.467-8.915-12.8-13.016-18.647-1.229,2.467-2.8,5.553-4.311,8.672-2.949,6.1-6.662,11.978-8.61,18.388-3.362,11.06.906,19.4,11.451,22.7a4.378,4.378,0,0,1,1.424.67c1.822,1.456,2.941,2.831.857,5.2a30.841,30.841,0,0,0-4.677,7.2c-4.054,8.66-2.666,16.621,1.3,24.753a30.275,30.275,0,0,0,5.083,7.031c1.918,1.918,13.427,12.761,29.4,11.506,8.082-.635,17.423-4.426,21.734-10.866a9.422,9.422,0,0,0,1.917-5.753c-.191-4.261-3.985-7.162-6.392-8.949-8.163-6.062-17.61-5.816-19.176-5.753-11.673.464-19.463,7.4-21.734,9.588l-1.128.806c3.831,4.351,7.132,5.42,9.438,5.586,4.412.318,6.5-2.546,10.867-1.278,2.833.823,2.989,2.331,6.392,3.2,4,1.016,6.98-.258,7.031,0,.072.353-5.431,3.171-10.227,1.278-1.748-.69-1.928-1.423-3.835-1.918-2.417-.626-3.848.106-7.032.64-2.8.468-6.356,1.064-9.588,0-1.471-.485-5.131-3.557-6.489-5.114-5.017-5.753-6.877-15.782-3.752-22.5,2.579-5.545,7.1-9.221,12.251-12.194,4.1-2.367,6.264-1.955,9.434,1.575" fill="#fff"/>
        </g>
      </g>
      <text id="III_CONGRESSO" data-name="III CONGRESSO" transform="translate(95.792 36.236)" fill="#fff" font-size="26.208" font-family="Poppins-SemiBold, Poppins" font-weight="600"><tspan x="0" y="0">III CONGRESSO</tspan></text>
      <text id="Miqueias" transform="translate(11.725 91.707)" fill="#fff" font-size="58.352" font-family="Poppins-Bold, Poppins" font-weight="700"><tspan x="0" y="0">Miqueias</tspan></text>
      <text id="Semeando_a" data-name="Semeando a" transform="translate(434.939 36.96)" fill="#fff" font-size="26.208" font-family="Poppins-SemiBold, Poppins" font-weight="600"><tspan x="0" y="0">Semeando a</tspan></text>
      <g id="Group_12" data-name="Group 12">
        <g id="Group_11" data-name="Group 11" clip-path="url(#clip-path)">
          <text id="Esperança" transform="translate(434.94 92.431)" fill="#fff" font-size="58.352" font-family="Poppins-Bold, Poppins" font-weight="700"><tspan x="0" y="0">Esperança</tspan></text>
        </g>
      </g>
    </g>
    <rect id="Rectangle_17" data-name="Rectangle 17" width="321" height="70" rx="8" transform="matrix(0.998, -0.07, 0.07, 0.998, 912, 434.392)" fill="#a32323"/>
    <text id="ADIADO" transform="matrix(0.998, -0.07, 0.07, 0.998, 964.116, 485.551)" fill="#fff" font-size="56" font-family="Poppins-Bold, Poppins" font-weight="700"><tspan x="0" y="0">ADIADO</tspan></text>
  </g>
</svg>
